<?xml version="1.0" standalone="no"?>
<!DOCTYPE svg PUBLIC "-//W3C//DTD SVG 20010904//EN"
 "http://www.w3.org/TR/2001/REC-SVG-20010904/DTD/svg10.dtd">
<svg version="1.0" xmlns="http://www.w3.org/2000/svg"
 width="1080.000000pt" height="1080.000000pt" viewBox="0 0 1080.000000 1080.000000"
 preserveAspectRatio="xMidYMid meet">

<g transform="translate(0.000000,1080.000000) scale(0.100000,-0.100000)"
fill="#000000" stroke="none">
<path d="M5170 9218 c-446 -47 -650 -86 -938 -179 -562 -182 -1076 -490 -1491
-894 -648 -630 -1058 -1475 -1141 -2350 -6 -66 -15 -156 -21 -199 -19 -161
-12 -316 32 -676 97 -812 470 -1589 1044 -2179 500 -514 1135 -880 1823 -1051
322 -80 538 -104 922 -104 328 0 423 7 690 55 767 136 1498 528 2055 1100 509
523 861 1196 1005 1919 52 261 64 407 64 740 0 328 -8 424 -55 690 -136 768
-527 1498 -1100 2055 -590 574 -1369 947 -2179 1044 -357 43 -515 50 -710 29z
m675 -102 c567 -69 1131 -276 1605 -589 357 -236 690 -548 936 -877 159 -212
264 -386 383 -630 182 -376 296 -763 348 -1180 25 -204 25 -676 0 -880 -72
-577 -276 -1134 -590 -1610 -236 -357 -548 -690 -877 -936 -212 -159 -386
-264 -630 -383 -376 -182 -763 -296 -1180 -348 -204 -25 -676 -25 -880 0 -577
72 -1134 276 -1610 590 -290 192 -526 398 -764 667 -427 485 -727 1090 -855
1729 -53 260 -65 405 -65 731 0 326 12 471 65 731 93 465 283 926 542 1319
192 290 398 526 667 764 485 427 1090 727 1729 855 123 25 253 43 476 65 94 9
577 -3 700 -18z"/>
<path d="M5862 8259 c-97 -22 -205 -70 -288 -127 -33 -23 -357 -339 -744 -729
-626 -628 -690 -695 -730 -767 -60 -108 -90 -216 -97 -347 -21 -402 264 -747
669 -810 176 -28 388 21 542 123 67 45 1348 1314 1420 1408 62 80 93 137 127
236 40 114 51 297 25 408 -74 315 -299 537 -615 607 -106 23 -200 22 -309 -2z
m-122 -1734 c0 -6 -152 -162 -337 -346 -314 -312 -343 -337 -408 -367 -99 -45
-196 -59 -287 -44 -286 48 -469 320 -403 600 30 126 44 144 408 510 l342 342
342 -342 c189 -189 343 -348 343 -353z"/>
<path d="M4553 4708 c-10 -17 -12 -413 -4 -912 l6 -391 53 -9 c36 -6 60 -5 78
3 l26 11 -4 460 c-2 303 0 459 7 457 5 -2 13 -28 18 -58 4 -30 28 -160 53
-289 24 -129 50 -260 55 -290 9 -45 31 -153 54 -266 4 -16 15 -23 47 -27 57
-8 73 11 81 100 4 37 14 97 22 133 17 74 63 316 99 529 24 139 30 160 42 149
3 -3 5 -204 5 -447 l0 -441 22 -15 c16 -10 38 -12 80 -8 l57 6 1 41 c0 23 -1
127 -2 231 -1 105 -1 357 -1 560 0 364 -6 461 -31 477 -6 4 -51 8 -100 8 -101
0 -100 2 -111 -110 -4 -36 -12 -79 -17 -97 -6 -18 -11 -47 -11 -65 0 -18 -6
-60 -14 -93 -7 -33 -14 -76 -15 -95 -2 -19 -6 -39 -9 -45 -4 -5 -10 -23 -14
-40 -9 -46 -66 -349 -66 -354 0 -3 -4 -1 -9 4 -5 6 -21 69 -36 140 -15 72 -29
133 -32 137 -2 5 -6 32 -9 60 -2 29 -10 75 -18 103 -8 27 -17 77 -21 110 -9
86 -53 303 -65 326 -10 17 -22 19 -110 19 -68 0 -101 -4 -107 -12z"/>
<path d="M6815 4713 c-11 -3 -23 -8 -28 -12 -13 -13 -20 -221 -7 -221 7 0 9
-14 5 -42 -7 -59 -16 -1009 -9 -1030 6 -21 84 -26 84 -6 0 9 3 9 12 0 16 -16
53 -15 67 2 8 9 12 55 12 128 -1 62 1 345 4 629 3 394 1 520 -8 533 -13 17
-95 29 -132 19z"/>
<path d="M3306 4695 c-14 -14 -15 -89 -12 -649 2 -348 6 -638 10 -645 5 -7 34
-10 84 -8 l77 3 4 65 c2 35 3 160 2 277 -2 201 -1 212 16 212 20 0 47 -64 94
-225 12 -38 40 -126 63 -195 l41 -125 87 -3 c80 -3 87 -1 93 18 4 13 -5 46
-23 88 -16 37 -37 92 -47 122 -10 30 -32 87 -48 125 -16 39 -40 99 -52 135
l-22 65 48 48 c89 88 109 153 105 347 -3 164 -20 224 -83 287 -58 59 -113 73
-284 73 -111 0 -141 -3 -153 -15z m292 -166 c37 -23 46 -59 50 -205 l4 -142
-29 -32 c-25 -28 -38 -34 -86 -38 -53 -4 -57 -3 -66 20 -5 13 -12 106 -16 206
-9 216 -8 217 71 209 28 -3 61 -11 72 -18z"/>
<path d="M3992 4699 l-24 -9 6 -312 c3 -172 6 -458 6 -635 0 -262 3 -325 14
-336 12 -11 53 -13 218 -10 112 3 209 6 216 9 9 3 12 24 10 76 l-3 73 -137 3
-138 3 -1 57 c-1 31 -3 128 -5 215 l-3 157 99 0 c120 0 130 7 130 85 0 76 -12
85 -115 85 -55 0 -85 -4 -87 -12 -2 -6 -9 -8 -16 -5 -7 5 -10 67 -9 205 l2
197 135 5 135 5 3 65 c2 52 -1 67 -15 77 -20 16 -384 17 -421 2z"/>
<path d="M5528 4703 c-9 -2 -19 -12 -23 -21 -3 -9 -4 -152 -1 -317 3 -165 7
-448 8 -628 2 -255 6 -330 16 -336 18 -11 424 -1 440 11 7 6 12 33 12 62 0 83
-5 85 -155 88 l-130 3 -3 213 -3 212 91 0 c120 0 130 6 130 76 0 88 -6 94
-103 94 -51 0 -88 -5 -95 -12 -6 -6 -14 -10 -16 -7 -5 5 -8 144 -7 301 l1 107
133 3 132 3 3 65 c2 52 -1 67 -15 77 -12 10 -69 13 -207 12 -105 -1 -198 -3
-208 -6z"/>
<path d="M6096 4694 c-14 -14 -16 -85 -16 -629 0 -390 4 -623 10 -640 l10 -27
168 4 c125 4 178 9 212 22 105 40 153 136 150 306 0 52 -1 102 0 110 3 65 -3
556 -7 563 -3 5 -6 37 -7 71 -3 110 -79 202 -187 225 -27 6 -110 11 -184 11
-108 0 -137 -3 -149 -16z m304 -157 c45 -23 48 -56 52 -500 l3 -416 -28 -28
c-25 -25 -35 -28 -95 -28 l-67 0 -3 478 c-2 264 -1 485 2 493 7 18 101 19 136
1z"/>
<path d="M7131 4699 l-24 -9 7 -318 c3 -174 6 -460 6 -634 1 -257 3 -320 14
-331 12 -11 53 -13 218 -10 112 3 209 6 216 9 9 3 12 24 10 76 l-3 73 -137 3
-138 3 -1 47 c-1 26 -3 122 -5 215 l-4 167 100 0 c124 0 134 7 128 93 -3 36
-10 62 -19 68 -22 13 -177 11 -181 -3 -2 -6 -9 -8 -16 -5 -7 5 -10 67 -9 205
l2 197 135 5 135 5 3 65 c2 52 -1 67 -15 77 -21 16 -384 17 -422 2z"/>
</g>
</svg>
